<svg id="visual" viewBox="0 0 960 540" width="960" height="540" xmlns="http://www.w3.org/2000/svg" xmlns:xlink="http://www.w3.org/1999/xlink" version="1.1"><rect x="0" y="0" width="960" height="540" fill="#202124"></rect><defs><linearGradient id="grad1_0" x1="43.8%" y1="100%" x2="100%" y2="0%"><stop offset="14.444444444444446%" stop-color="#ffffff" stop-opacity="1"></stop><stop offset="85.55555555555554%" stop-color="#ffffff" stop-opacity="1"></stop></linearGradient></defs><defs><linearGradient id="grad1_1" x1="43.8%" y1="100%" x2="100%" y2="0%"><stop offset="14.444444444444446%" stop-color="#ffffff" stop-opacity="1"></stop><stop offset="85.55555555555554%" stop-color="#878789" stop-opacity="1"></stop></linearGradient></defs><defs><linearGradient id="grad1_2" x1="43.8%" y1="100%" x2="100%" y2="0%"><stop offset="14.444444444444446%" stop-color="#202124" stop-opacity="1"></stop><stop offset="85.55555555555554%" stop-color="#878789" stop-opacity="1"></stop></linearGradient></defs><defs><linearGradient id="grad2_0" x1="0%" y1="100%" x2="56.3%" y2="0%"><stop offset="14.444444444444446%" stop-color="#ffffff" stop-opacity="1"></stop><stop offset="85.55555555555554%" stop-color="#ffffff" stop-opacity="1"></stop></linearGradient></defs><defs><linearGradient id="grad2_1" x1="0%" y1="100%" x2="56.3%" y2="0%"><stop offset="14.444444444444446%" stop-color="#878789" stop-opacity="1"></stop><stop offset="85.55555555555554%" stop-color="#ffffff" stop-opacity="1"></stop></linearGradient></defs><defs><linearGradient id="grad2_2" x1="0%" y1="100%" x2="56.3%" y2="0%"><stop offset="14.444444444444446%" stop-color="#878789" stop-opacity="1"></stop><stop offset="85.55555555555554%" stop-color="#202124" stop-opacity="1"></stop></linearGradient></defs><g transform="translate(960, 540)"><path d="M-432 0C-396.8 -61.3 -361.6 -122.6 -330 -190.5C-298.4 -258.4 -270.4 -332.8 -216 -374.1C-161.6 -415.5 -80.8 -423.7 0 -432L0 0Z" fill="#505154"></path><path d="M-288 0C-264.5 -40.9 -241 -81.8 -220 -127C-198.9 -172.2 -180.3 -221.9 -144 -249.4C-107.7 -277 -53.9 -282.5 0 -288L0 0Z" fill="#c1c1c2"></path><path d="M-144 0C-132.3 -20.4 -120.5 -40.9 -110 -63.5C-99.5 -86.1 -90.1 -110.9 -72 -124.7C-53.9 -138.5 -26.9 -141.2 0 -144L0 0Z" fill="#ffffff"></path></g><g transform="translate(0, 0)"><path d="M432 0C411.1 69.6 390.2 139.2 356.8 206C323.4 272.8 277.5 336.9 216 374.1C154.5 411.3 77.2 421.7 0 432L0 0Z" fill="#505154"></path><path d="M288 0C274.1 46.4 260.1 92.8 237.9 137.3C215.6 181.9 185 224.6 144 249.4C103 274.2 51.5 281.1 0 288L0 0Z" fill="#c1c1c2"></path><path d="M144 0C137 23.2 130.1 46.4 118.9 68.7C107.8 90.9 92.5 112.3 72 124.7C51.5 137.1 25.7 140.6 0 144L0 0Z" fill="#ffffff"></path></g></svg>